HIERARCHY
ROOT root
{
	OFFSET	0	13.1	24.9
	CHANNELS 6  Xposition Yposition Zposition Xrotation Yrotation Zrotation
	JOINT spine_1
	{
		OFFSET	0	9.99999	0
		CHANNELS 3  Xrotation Yrotation Zrotation
		JOINT spine_2
		{
			OFFSET	0	112	-10
			CHANNELS 3  Xrotation Yrotation Zrotation
			JOINT spine_3
			{
				OFFSET	0	206.5	19.3
				CHANNELS 3  Xrotation Yrotation Zrotation
				JOINT spine_4
				{
					OFFSET	0	110.4	14.6
					CHANNELS 3  Xrotation Yrotation Zrotation
					JOINT neck_1
					{
						OFFSET	0	71.8	-50.3
						CHANNELS 3  Xrotation Yrotation Zrotation
						JOINT neck_2
						{
							OFFSET	0	86.2	-25.8
							CHANNELS 3  Xrotation Yrotation Zrotation
							JOINT head_ee
							{
								OFFSET	0	179.8	-8.7
								CHANNELS 3  Xrotation Yrotation Zrotation
								End Site
								{
									OFFSET	1	0	0
								}
							}
						}
					}
					JOINT left_clavicle
					{
						OFFSET	-43.2	22.4	-70.8
						CHANNELS 3  Xrotation Yrotation Zrotation
						JOINT left_shoulder
						{
							OFFSET	-93.9	-5.79999	48.7
							CHANNELS 3  Xrotation Yrotation Zrotation
							JOINT left_elbow
							{
								OFFSET	-291.4	-30.8	15.2
								CHANNELS 3  Xrotation Yrotation Zrotation
								JOINT left_lowarm_twist
								{
									OFFSET	-110.7	-3.89999	13.6
									CHANNELS 3  Xrotation Yrotation Zrotation
									JOINT left_hand
									{
										OFFSET	-110.7	-3.89999	13.6
										CHANNELS 3  Xrotation Yrotation Zrotation
										JOINT left_ee
										{
											OFFSET	-80.8	-5.10001	12.1
											CHANNELS 3  Xrotation Yrotation Zrotation
											End Site
											{
												OFFSET	1	0	0
											}
										}
									}
								}
							}
						}
					}
					JOINT right_clavicle
					{
						OFFSET	43.2	22.4	-70.8
						CHANNELS 3  Xrotation Yrotation Zrotation
						JOINT right_shoulder
						{
							OFFSET	93.9	-5.79999	48.7
							CHANNELS 3  Xrotation Yrotation Zrotation
							JOINT right_elbow
							{
								OFFSET	291.4	-30.8	15.2
								CHANNELS 3  Xrotation Yrotation Zrotation
								JOINT right_lowarm_twist
								{
									OFFSET	110.7	-3.89999	13.6
									CHANNELS 3  Xrotation Yrotation Zrotation
									JOINT right_hand
									{
										OFFSET	110.7	-3.89999	13.6
										CHANNELS 3  Xrotation Yrotation Zrotation
										JOINT right_ee
										{
											OFFSET	80.8	-5.10001	12.1
											CHANNELS 3  Xrotation Yrotation Zrotation
											End Site
											{
												OFFSET	1	0	0
											}
										}
									}
								}
							}
						}
					}
				}
			}
		}
	}
	JOINT left_hip
	{
		OFFSET	-82.8	-127.5	0.300001
		CHANNELS 3  Xrotation Yrotation Zrotation
		JOINT left_knee
		{
			OFFSET	-28.2	-396.7	2.2
			CHANNELS 3  Xrotation Yrotation Zrotation
			JOINT left_ankle
			{
				OFFSET	-11.7	-411.3	35.4
				CHANNELS 3  Xrotation Yrotation Zrotation
				JOINT left_toes
				{
					OFFSET	0	-60	-88.6
					CHANNELS 3  Xrotation Yrotation Zrotation
					JOINT left_foot_ee
					{
						OFFSET	-22.5	-16.5	-42.2
						CHANNELS 3  Xrotation Yrotation Zrotation
						End Site
						{
							OFFSET	1	0	0
						}
					}
				}
			}
		}
	}
	JOINT right_hip
	{
		OFFSET	82.8	-127.5	0.300001
		CHANNELS 3  Xrotation Yrotation Zrotation
		JOINT right_knee
		{
			OFFSET	28.2	-396.7	2.2
			CHANNELS 3  Xrotation Yrotation Zrotation
			JOINT right_ankle
			{
				OFFSET	11.7	-411.3	35.4
				CHANNELS 3  Xrotation Yrotation Zrotation
				JOINT right_toes
				{
					OFFSET	0	-60	-88.6
					CHANNELS 3  Xrotation Yrotation Zrotation
					JOINT right_foot_ee
					{
						OFFSET	22.5	-16.5	-42.2
						CHANNELS 3  Xrotation Yrotation Zrotation
						End Site
						{
							OFFSET	1	0	0
						}
					}
				}
			}
		}
	}
}
MOTION
Frames: 5
Frame Time: 0.02
1279.44193243 725.436 -1735.92158768 3.10221888666 19.3554550122 -4.10720132777 -3.76303 0.64116 2.93317 -3.75836 0.4533 2.96798 -3.72703 -0.37518 2.97885 -3.7394 0.0997634 3.00071 3.7008 6.31171 -7.24465 4.29647 17.1462 -7.85062 -0.0 0.0 -0.0 8.5679 9.46738 16.2533 -17.6396 -15.0147 49.0274 0.73692 -20.0545 0.130302 -8.49154 -0.375408 1.01762 -0.474666 -8.01866 -6.62325 -0.0 0.0 -0.0 11.8651 16.5148 -23.8285 -10.9248 44.0932 -51.1964 0.756444 20.5419 -0.137075 -50.653 4.1485 -4.71662 -3.61909 -20.9884 12.9895 0.0 0.0 0.0 22.2628 0.586492 -1.76705 -62.8424 -2.5146 8.83095 32.2833 26.5722 -4.40965 36.5479 -0.0 -0.0 -0.0 0.0 -0.0 20.7154 45.7263 -13.7151 -19.3149 -0.30316 -2.93452 13.8947 -27.1462 2.06551 8.98747 -0.0 -0.0 0.0 0.0 0.0 
1221.60468022 730.62 -1774.89584063 4.33631878204 26.7706806481 -5.1131881385 -3.45258 0.436712 3.09504 -3.44728 0.238979 3.11653 -3.42668 -0.606207 3.06638 -3.43979 -0.114569 3.12357 1.25511 4.29624 -2.64949 1.3753 9.7923 -2.51113 -0.0 0.0 -0.0 8.04777 10.3451 15.2435 -24.1117 -11.9676 51.911 0.753045 -20.4573 0.135885 -7.17114 -0.307169 0.863156 -1.00551 -1.06102 -7.19874 -0.0 0.0 -0.0 11.7881 16.0362 -23.6738 -6.16929 44.8141 -51.5345 0.857106 23.0051 -0.174423 -51.5771 4.25771 -4.76283 -3.48318 -18.0861 13.868 0.0 0.0 0.0 27.5063 6.01817 -6.23358 -57.9206 -1.97968 8.29238 34.9365 26.5304 -4.70076 36.0331 -0.0 -0.0 -0.0 0.0 -0.0 13.9917 38.959 -10.6212 -19.5871 -0.300323 -2.97618 20.0022 -28.301 2.92805 10.2486 -0.0 -0.0 0.0 0.0 0.0 
1220.13824969 730.62 -1774.15514985 4.34710530691 27.0505919809 -5.13702041097 -3.45258 0.436712 3.09504 -3.44728 0.238979 3.11653 -3.42668 -0.606207 3.06638 -3.43979 -0.114569 3.12357 1.25511 4.29624 -2.64949 1.3753 9.7923 -2.51113 -0.0 0.0 -0.0 8.04777 10.3451 15.2435 -24.1117 -11.9676 51.911 0.753045 -20.4573 0.135885 -7.17114 -0.307169 0.863156 -1.00551 -1.06102 -7.19874 -0.0 0.0 -0.0 11.7881 16.0362 -23.6738 -6.16929 44.8141 -51.5345 0.857106 23.0051 -0.174423 -51.5771 4.25771 -4.76283 -3.48318 -18.0861 13.868 0.0 0.0 0.0 27.5063 6.01817 -6.23358 -57.9206 -1.97968 8.29238 34.9365 26.5304 -4.70076 36.0331 -0.0 -0.0 -0.0 0.0 -0.0 13.9917 38.959 -10.6212 -19.5871 -0.300323 -2.97618 20.0022 -28.301 2.92805 10.2486 -0.0 -0.0 0.0 0.0 0.0 
1192.39842109 734.838 -1774.01398253 3.14224791133 32.2359127176 -4.87790835978 -3.27139 0.513471 3.28701 -3.26543 0.303387 3.31298 -3.23945 -0.586164 3.27484 -3.25441 -0.0619062 3.32626 -2.84385 5.04216 -4.26542 -2.69793 12.4809 -3.74071 -0.0 0.0 -0.0 7.90718 10.883 14.9549 -25.0291 -12.4726 51.6321 0.760221 -20.6359 0.138404 -7.55588 -0.326684 0.908325 -0.832228 1.86616 -4.74823 -0.0 0.0 -0.0 11.9591 16.5432 -24.0422 -5.69164 44.4265 -50.2196 0.850005 22.8342 -0.171658 -52.0622 4.31533 -4.78639 -3.55131 -17.0368 14.9111 0.0 0.0 0.0 29.4957 7.16176 -7.4264 -57.735 -1.96044 8.2712 33.5971 24.1055 -4.4873 35.204 -0.0 -0.0 -0.0 0.0 -0.0 12.2847 33.8613 -8.6184 -17.9294 -0.314537 -2.72223 22.2171 -27.711 3.20988 10.6815 -0.0 -0.0 0.0 0.0 0.0 
1164.94932845 732.566 -1778.64929628 2.39050618851 34.9467651466 -5.24208240739 -2.90179 0.531148 3.38229 -2.89548 0.314975 3.4092 -2.86842 -0.578668 3.3745 -2.88431 -0.0387919 3.42348 -2.51512 4.62241 -2.51743 -2.43376 10.3507 -1.99862 -0.0 0.0 -0.0 7.66303 13.0745 14.3744 -25.483 -12.3799 52.2631 0.768015 -20.8294 0.141163 -7.39503 -0.318489 0.889457 -0.730803 3.93953 -3.16932 -0.0 0.0 -0.0 12.0447 14.9925 -24.3002 -5.60593 44.0559 -49.2257 0.966742 25.5891 -0.219546 -53.1728 4.44798 -4.83847 -3.92664 -18.7666 16.2425 0.0 0.0 0.0 32.4831 11.6071 -8.07529 -55.8884 -1.77275 8.05712 35.0082 25.9965 -4.69206 35.208 -0.0 -0.0 -0.0 0.0 -0.0 10.6447 31.9706 -6.66748 -17.6076 -0.316444 -2.6729 22.8508 -25.9722 3.25647 11.8343 -0.0 -0.0 0.0 0.0 0.0 
